<svg xmlns="http://www.w3.org/2000/svg" viewBox="0 0 511.218 511.218" width="150"><circle style="fill:#956ec4" cx="201.092" cy="262.037" r="192.494"/><path style="fill:#b77fd8" d="M95.145 388.586c-75.172-75.172-75.172-197.05 0-272.224 18.573-18.573 40-32.548 62.867-41.944-34.095 7.794-66.481 24.955-93.036 51.51-75.172 75.172-75.172 197.05 0 272.223 56.599 56.599 139.673 70.575 209.356 41.944-62.42 14.269-130.57-2.892-179.187-51.509z"/><path style="fill:#6d2c92" d="m362.88 157.706 18.67-18.671c8.026-8.025 8.026-21.039.001-29.064l-25.993-25.993c-8.026-8.025-21.039-8.025-29.064.001l-18.168 18.168c-54.892-36.902-124.585-42.47-183.944-16.707 62.398-14.235 130.511 2.932 179.108 51.529 75.172 75.172 75.172 197.05 0 272.223-17.634 17.634-37.838 31.13-59.406 40.491 34.124-7.785 66.54-24.952 93.116-51.529 65.314-65.317 73.865-165.886 25.68-240.448z"/><circle style="fill:#b77fd8" cx="131.18" cy="303.648" r="58.396"/><path style="fill:#1c2042" d="M383.891 201.919a8.277 8.277 0 0 0-5.758 10.192 185.658 185.658 0 0 1 2.46 9.898 8.282 8.282 0 0 0 8.078 6.508 8.28 8.28 0 0 0 8.093-10.054 201.87 201.87 0 0 0-2.682-10.786c-1.222-4.405-5.785-6.988-10.191-5.758z"/><path style="fill:#1c2042" d="M476.047 141.797c7.51-12.437 14.603-24.184 11.914-40.895-3.693-22.954-25.949-48.568-56.803-51.702-26.085-2.635-50.952 11.107-64.063 34.286l-6.097-6.097c-11.241-11.241-29.532-11.241-40.771.002l-13.641 13.642c-31.484-19.625-67.887-30.135-105.91-30.135-53.628 0-104.045 20.884-141.965 58.803-78.279 78.28-78.279 205.65 0 283.93 39.146 39.145 90.546 58.708 141.965 58.708 51.406 0 102.83-19.574 141.964-58.708 28.641-28.64 47.756-64.734 55.274-104.379a8.277 8.277 0 1 0-16.265-3.084c-6.897 36.365-24.435 69.478-50.715 95.757-71.823 71.825-188.692 71.825-260.515 0-71.824-71.823-71.824-188.691 0-260.514C133.39 68.435 230.99 60.68 302.5 108.139c.178.141.355.284.545.411 8.847 5.928 17.135 12.556 24.691 19.744.137.13.27.266.407.397.939.9 1.873 1.805 2.789 2.721a174.532 174.532 0 0 1 3.311 3.402l.161.172c7.683 8.126 14.712 17.077 20.93 26.673.183.283.384.549.597.804a182.689 182.689 0 0 1 12.701 23.422 8.278 8.278 0 1 0 15.092-6.806 199.255 199.255 0 0 0-10.885-20.773l14.151-14.151c11.241-11.242 11.241-29.531 0-40.77l-7.598-7.598c9.163-19.726 29.517-32.217 50.092-30.113 22.63 2.297 39.488 21.44 42.13 37.861 1.725 10.717-2.836 18.273-9.741 29.706-5.394 8.934-12.107 20.052-16.763 35.332-7.888 25.892-7.159 54.445 2.168 84.864a8.282 8.282 0 0 0 10.342 5.488 8.28 8.28 0 0 0 5.488-10.342c-8.344-27.207-9.071-52.503-2.159-75.184 4.055-13.313 9.923-23.031 15.098-31.602zm-100.763-9.351L363.53 144.2a201.423 201.423 0 0 0-15.411-18.791 201.956 201.956 0 0 0-5.477-5.706 204.742 204.742 0 0 0-5.526-5.302 202.692 202.692 0 0 0-16.616-13.865L331.936 89.1c4.786-4.788 12.574-4.786 17.358-.002l25.992 25.994c4.784 4.782 4.784 12.569-.002 17.354z"/><path style="fill:none;stroke:#ffa81e;stroke-width:15;stroke-linecap:round;stroke-linejoin:round;stroke-miterlimit:10" d="m442.041 261.64-30.287 30.276m61.688-34.36 30.276 30.276"/><path style="fill:none;stroke:#ffd92d;stroke-width:15;stroke-linecap:round;stroke-linejoin:round;stroke-miterlimit:10" d="M458.365 266.264v42.815"/><path style="fill:#fff" d="M103.842 395.611a8.25 8.25 0 0 1-4.911-1.618c-23.402-17.277-35.308-34.565-45.983-55.21a8.278 8.278 0 1 1 14.706-7.605c9.887 19.118 20.214 34.066 41.111 49.494a8.276 8.276 0 0 1 1.743 11.576 8.266 8.266 0 0 1-6.666 3.363zm-53.008-77.943a8.28 8.28 0 0 1-7.951-5.991l-.246-.851c-.215-.738-.215-.738-.394-1.485l-.208-.86a8.28 8.28 0 0 1 6.084-10.002c4.441-1.085 8.921 1.642 10.002 6.085l.22.911c.087.363.087.363.192.722l.26.9a8.278 8.278 0 0 1-5.667 10.245 8.158 8.158 0 0 1-2.292.326z"/></svg>